<?xml version="1.0" encoding="iso-8859-1"?>
<!-- Generator: Adobe Illustrator 19.0.0, SVG Export Plug-In . SVG Version: 6.00 Build 0)  -->
<svg xmlns="http://www.w3.org/2000/svg" xmlns:xlink="http://www.w3.org/1999/xlink" version="1.1" id="Layer_1" x="0px" y="0px" viewBox="0 0 306.965 306.965" style="enable-background:new 0 0 306.965 306.965;" xml:space="preserve" width="512" height="512">
<g>
	<g>
		<g>
			<path style="fill:#FBCFE8;" d="M206.725,238.511v40.249c0,15.577-12.628,28.205-28.205,28.205h-50.074     c-15.577,0-28.205-12.628-28.205-28.205v-40.249L65.162,117.666c-2.395-8.198-3.679-16.752-3.679-25.725     c0-50.126,40.087-90.83,89.952-91.918c50.203-1.095,91.716,37.632,93.954,87.797c0.448,10.039-0.716,19.769-3.254,28.907     l-0.331,0.932L206.725,238.511z"/>
		</g>
	</g>
	<g>
		<g>
			<path style="fill:#EC4899;" d="M153.483,306.965h-25.037c-15.577,0-28.205-12.628-28.205-28.205v-40.249L65.162,117.666     c-2.395-8.198-3.679-16.752-3.679-25.725c0-50.126,40.087-90.83,89.952-91.918c0.643-0.014,1.409-0.022,2.048-0.023V306.965z"/>
			<g>
				<g>
					<path style="fill:#C4C8C4;" d="M100.24,238.511v40.249c0,15.577,12.628,28.205,28.205,28.205h50.074       c15.577,0,28.205-12.628,28.205-28.205v-40.249H100.24z"/>
				</g>
			</g>
			<g>
				<g>
					<path style="fill:#A5A9A6;" d="M100.24,238.511v40.249c0,15.577,12.628,28.205,28.205,28.205h25.037v-68.454H100.24z"/>
				</g>
			</g>
		</g>
	</g>
	<g>
		<path style="fill:#2B8A9A;" d="M159.483,111.292V70.587c9,2.574,14.15,10.404,14.15,19.645c0,4.142,3.161,7.5,7.303,7.5    s7.795-3.358,7.795-7.5c0-17.553-12.248-32.166-29.248-35.027v-1.83c0-4.142-3.358-7.5-7.5-7.5s-7.5,3.358-7.5,7.5v2.471    c-15,3.996-26.543,17.896-26.543,34.386s11.543,30.39,26.543,34.386v40.139c-6-3.344-11.937-10.341-11.937-18.438    c0-4.142-3.555-7.5-7.697-7.5s-7.205,3.358-7.205,7.5c0,16.49,11.839,30.39,26.839,34.386v4.671c0,4.142,3.358,7.5,7.5,7.5    s7.5-3.358,7.5-7.5v-4.03c17-2.861,29.543-17.473,29.543-35.026S176.483,114.153,159.483,111.292z M132.939,90.232    c0-8.097,5.543-15.094,11.543-18.439v36.877C138.483,105.326,132.939,98.329,132.939,90.232z M159.483,165.963v-39.289    c9,2.574,14.543,10.404,14.543,19.645S168.483,163.389,159.483,165.963z"/>
	</g>
</g>















</svg>
